<svg id="visual" viewBox="0 0 1920 1080" width="1920" height="1080" xmlns="http://www.w3.org/2000/svg" xmlns:xlink="http://www.w3.org/1999/xlink" version="1.1"><rect x="0" y="0" width="1920" height="1080" fill="#fff"></rect><path d="M1698 1080L1702.5 1054.3C1707 1028.7 1716 977.3 1717.2 925.8C1718.3 874.3 1711.7 822.7 1718.5 771.2C1725.3 719.7 1745.7 668.3 1750.7 617C1755.7 565.7 1745.3 514.3 1745.3 463C1745.3 411.7 1755.7 360.3 1749.8 308.8C1744 257.3 1722 205.7 1721.3 154.2C1720.7 102.7 1741.3 51.3 1751.7 25.7L1762 0L1920 0L1920 25.7C1920 51.3 1920 102.7 1920 154.2C1920 205.7 1920 257.3 1920 308.8C1920 360.3 1920 411.7 1920 463C1920 514.3 1920 565.7 1920 617C1920 668.3 1920 719.7 1920 771.2C1920 822.7 1920 874.3 1920 925.8C1920 977.3 1920 1028.7 1920 1054.3L1920 1080Z" fill="#2CB2B4" stroke-linecap="round" stroke-linejoin="miter"></path></svg>